<?xml version="1.0" encoding="UTF-8"?>
<svg id="Layer_1" xmlns="http://www.w3.org/2000/svg" version="1.1" viewBox="0 0 189.73 273.03">
  <!-- Generator: Adobe Illustrator 29.1.0, SVG Export Plug-In . SVG Version: 2.1.0 Build 142)  -->
  <path d="M156.46,128.19c6.01,30.05,42.61,35.57,22.1,72-6.73,11.96-40.56,41.69-53.13,46.47-6.91,2.63-12.36-1.78-17.89-5.72,20.67-18.24,49.27-42.38,45.43-73.2-.19-1.49-.44-6.13-2.6-5.78.84,34.85-38.94,51.41-61.21,71.34-.76,1.95,5.5,5.45,7.16,6.59,16.45,11.36,32.26,14.71,49.1,22.86,1.81.88,4.53.81,4.93,3.48-15.74,0-32.17-.91-47.75-3.5-10.35-1.72-39.92-12.19-46.25-11.79-5.21.34-25.26,9.37-33,11.47-5.98,1.62-12.12,3.56-18.36,3.82,21.9-17.74,46.29-32.49,67.35-51.35,21.87-19.58,50.09-47.86,69.62-69.79,4.06-4.56,7.92-12.12,11.32-15.93,1.22-1.37,1.18-1.29,3.18-.96Z"/>
  <path d="M99.86,7.02c-.28,2.15.72,5.76-.26,7.42-.55.92-15.78,6.5-19.5,8.82-21.94,13.68-37.26,44.44-33.65,70.29,1.23,8.81,9.66,20.27,18.18,23.19s26.66-.22,29.85,6.89c5.08,11.34-12.4,27.07-22.43,29.6-8.83,2.23-25.35-.16-20.85,15.29,1.84,6.31,9.72,5.96,13.43,8.06,3.28,1.86,7.33,23.23,9.02,28.74-1.08,3.94-37.4,33.16-40.35,32.95-14.07-13.39-23.3-27.46-20.51-47.81,2.27-16.51,21.94-28.24,24.22-44.75,2.58-18.76-5.88-29.67-7.5-45.9-3.24-32.31,9.47-56.31,33.63-76.7,9.9-8.36,23.24-17.86,36.74-16.09Z"/>
  <path d="M130.11,74.81c10.64-1.21,23.27,7.48,25.7,18,8.65,37.48-35.37,70.32-67.83,76.4-6.17,1.16-32.63,5.08-32.59-4.99.03-6.41,18.99-5.86,24.88-7.34,26.27-6.59,51-34.75,46.98-63.07-1.07-7.52-10.81-17.46,2.85-19.01Z"/>
  <path d="M102.47,41.09c29.39-6.79,28.99,40.93-1.48,33.03-15.5-4.02-14.37-29.37,1.48-33.03Z"/>
  <path d="M70.43,71.73c23.23-2.66,27.92,32.64,3.64,34.15-22.28,1.38-25.42-31.66-3.64-34.15Z"/>
</svg>