<svg 
    xmlns="http://www.w3.org/2000/svg" 
    xmlns:xlink="http://www.w3.org/1999/xlink" 
    version="1.1" 
    viewBox="0 0 557.1 570.1"
    width="100%" 
    height="100%"
    style="enable-background:new 0 0 557.1 570.1;"
    xml:space="preserve"
><g><path d="M525.5,235.1c-0.8-10.5-2.8-21.3-6-32c-0.2-0.6-0.4-1.3-0.6-1.9c3.4-3,5.1-5.4,4.7-5.7c-0.3-0.4-2.3,1-5.5,3.1   c-0.5-1.4-1-2.8-1.5-4.2c5.5-4,8.3-7.8,7.8-8.3c-0.5-0.5-3.8,2.1-9,5.2c-0.5-1.1-0.9-2.3-1.4-3.4c5.6-8.6,9.7-18.5,11.7-29.9   c0,0-13-5.7-31.9-9.5c5-2.5,9.8-4.1,13.4-5c1.8-0.5,3.3-0.8,4.4-1.1c1.1-0.3,1.6-0.6,1.6-0.8c0-0.3-0.6-0.5-1.7-0.6   c-1.1-0.2-2.7-0.3-4.7-0.1c-4,0.3-9.5,1.7-14.9,4.5c-1.3,0.7-2.5,1.4-3.6,2.1c-0.1,0-0.2,0-0.3,0c-1.2-1.3-2.3-2.5-3.5-3.7   c0.3-0.2,0.6-0.3,0.9-0.5c5.1-2.6,10-4.3,13.7-5.2c1.8-0.5,3.3-0.8,4.4-1.1c1.1-0.3,1.6-0.6,1.6-0.8c0-0.3-0.6-0.5-1.7-0.6   c-1.1-0.2-2.7-0.3-4.7-0.1c-4,0.3-9.5,1.7-14.9,4.5c-0.7,0.3-1.3,0.7-1.9,1.1c-0.9-0.9-1.9-1.8-2.8-2.7c0.1-0.1,0.1-0.1,0.1-0.2   c0-0.2-0.3-0.3-0.8-0.5c-9.8-9-19.8-16-29-21.4c-12.6-7.4-23.6-12-31.3-14.7c-3.8-1.4-6.9-2.3-9-2.9c-1-0.3-1.8-0.5-2.4-0.6   c-0.5-0.1-0.8-0.2-0.8-0.2c0,0,0.3,0.1,0.8,0.3c0.5,0.2,1.3,0.4,2.3,0.7c2,0.6,5.1,1.6,8.9,3.1c7.6,2.9,18.5,7.5,31,15   c8.7,5.2,18.3,11.9,27.6,20.4c-1-0.1-2.3-0.1-3.9,0c-4,0.3-9.5,1.7-14.9,4.5c-2.2,1.1-4.1,2.3-5.9,3.6c-7.4,0.5-14.9,1.7-22.3,3.7   c1.2-0.7,2.5-1.4,3.8-2.1c5.1-2.6,10-4.3,13.7-5.2c1.8-0.5,3.3-0.8,4.4-1.1c1.1-0.3,1.6-0.6,1.6-0.8c0-0.3-0.6-0.5-1.7-0.6   c-1.1-0.2-2.7-0.3-4.7-0.1c-4,0.3-9.5,1.7-14.9,4.5c-5.2,2.7-9.2,5.9-12,8.6c-19.2,7.5-37.4,21.6-50.8,46.5c0,0-11.6-8.8-28.8-19.6   c1.2-1.8,2.3-3.8,3.3-5.9c5.1-11.2,4.8-21.4,3.8-21.4c-1-0.1-2.3,9.4-7.1,19.9c-0.9,2-1.9,3.9-2.9,5.6c-1.8-1.1-3.6-2.2-5.5-3.3   c1-3.1,1.7-6.7,1.9-10.6c0.7-12.3-3.3-21.7-4.2-21.3c-1,0.3,1.3,9.6,0.6,21.1c-0.2,3.3-0.6,6.4-1.2,9.1c-2.8-1.6-5.7-3.3-8.7-4.9   c-0.2-3.2-0.7-6.8-1.9-10.5c-3.6-11.8-10.6-19.2-11.4-18.5c-0.8,0.6,4.5,8.6,7.9,19.6c0.8,2.6,1.4,5.2,1.8,7.6   c-2.4-1.3-4.9-2.6-7.4-3.9c0-3.6-0.5-8.1-1.9-12.7c-3.6-11.8-10.6-19.2-11.4-18.5c-0.8,0.6,4.5,8.6,7.9,19.6c1,3.4,1.7,6.7,2.2,9.6   c-1.8-3.6-5.1-8.1-9.6-12c-9.3-8.1-19.2-10.6-19.5-9.7c-0.4,0.9,8.4,4.9,17.1,12.4c3,2.6,5.4,5.2,7.4,7.6c-5.5-2.6-11.2-5-16.9-7.2   c-1.9-3.3-4.9-7.2-8.9-10.6c-9.3-8.1-19.2-10.6-19.5-9.7c-0.4,0.9,8.4,4.9,17.1,12.4c2.3,2,4.3,4,6,5.9c-20-7-39.9-10.4-56-5.5   c0,0,5.5,0.6,12.3,2.1c-10-0.1-17.3,2.7-16.9,3.6c0.2,1,9.7-0.8,21.1,0.3c5.7,0.6,10.7,1.9,14.3,3.1c1.7,0.5,3,1,4,1.4   c1.1,0.9,2.1,1.8,2.8,2.7c0,0-47.9-8.3-54.9,4.2c-6.9,12.5,13.9,9,13.9,9s-8.3-6.2-2.8-8.3c5.6-2.1,21.5,9,21.5,9   s-11.1,1.7-24.1,4.5c-2-0.5-4.2-0.9-6.5-1.1c-12.3-1.2-21.8,2.4-21.5,3.3c0.2,0.9,8-0.5,18.1,0.1c-14.8,3.6-29.2,8.1-30.5,12.7   c0,0-1-6.1-4.2-14.4c0.7-3.6,0.9-8.2,0.3-13c-1.6-12.2-7.3-20.7-8.1-20.2c-0.9,0.5,3,9.2,4.5,20.6c0.3,2.1,0.4,4.1,0.5,6   c-1.3-2.8-2.9-5.6-4.8-8.5c0-1.4-0.2-2.8-0.3-4.2c-1.6-12.2-7.3-20.7-8.1-20.2c-0.8,0.4,2.5,8.1,4.2,18.3c-1.4-1.7-2.9-3.4-4.5-5.1   c-0.4-2.7-1.2-5.6-2.3-8.6c-4.4-11.6-11.9-18.5-12.5-17.8c-0.8,0.7,5.1,8.3,9.1,19.1c0.4,1,0.7,2,1,3c-11.2-9.4-27.1-16-49.7-14.1   c0,0,4,18.5,12.8,38.3c-2.5-2.7-4.5-5.3-5.9-7.5c-1-1.5-1.7-2.7-2.3-3.6c-0.6-0.9-1-1.3-1.2-1.2c-0.2,0.1-0.2,0.7,0,1.7   c0.2,1,0.6,2.5,1.4,4.2c1.5,3.5,4.4,7.9,8.6,11.9c1.1,1.1,2.3,2,3.4,2.9c2.2,4.3,4.7,8.5,7.3,12.6c-0.9-0.4-1.8-0.9-2.7-1.4   c-5.1-2.7-9.2-5.8-12.1-8.3c-1.5-1.2-2.6-2.3-3.4-3c-0.8-0.7-1.4-1-1.6-0.9c-0.2,0.1,0,0.8,0.5,1.8c0.5,1,1.3,2.4,2.6,3.9   c2.5,3.1,6.8,6.8,12.2,9.7c2.8,1.5,5.6,2.6,8.2,3.5c6.9,8.9,15.1,16.1,24.8,19.4c0,0-42.4,34-45.8,54.9c-1,6.1-4.6,11.2-9.1,15.5   c-0.1-0.1-0.3-0.3-0.4-0.4c-3-2.7-7.8-5.6-13.6-7.6c-11.7-3.9-21.8-2.5-21.7-1.5c0,1,9.6,1.3,20.5,5c5.4,1.8,10.1,4.2,13.3,6.2   c0,0,0,0,0.1,0c-1.6,1.4-3.3,2.7-5,4c-0.2-0.2-0.6-0.4-1-0.7c-1-0.6-2.5-1.2-4.4-1.8c-3.8-1.2-9.5-1.8-15.6-1.1   c-12.3,1.4-20.9,6.9-20.3,7.7c0.4,0.9,9.3-2.8,20.7-4.1c5.7-0.6,10.9-0.4,14.6,0.1c1.9,0.2,3.4,0.5,4.5,0.6c0.2,0,0.3,0,0.5,0   c-2.2,1.6-4.5,3.1-6.7,4.5c-0.9-0.1-1.9-0.2-3.1-0.2c-4-0.1-9.6,0.9-15.3,3.2c-11.4,4.7-18.1,12.4-17.4,13   c0.7,0.8,8.1-5.3,18.8-9.7c4.8-2,9.5-3.2,13.1-3.8c-5.5,3.6-9.6,6.7-9.9,9.9c-0.7,9,9.7,20.8,17.4,22.9c0.9,0.2,3.5-0.1,7.4-0.8   l8,10.5l2-12.6c2.2-0.5,4.6-1,7.1-1.5l7.5,9.8l1.9-11.8c0.8-0.2,1.5-0.3,2.3-0.5l11.6,9.8l-0.8-11.9c1.8-0.3,3.7-0.7,5.6-1   l9.2,12.1l2.2-14.1c2-0.3,4-0.6,6-0.9l8.9,11.7l2.1-13.2c1.9-0.2,3.8-0.5,5.7-0.7l7.2,13.6l4.7-14.3l6.7-0.5l5.6,10.6l3.7-11.3   l7.7-0.5l7.3,13.8l4.6-13.8c2.2,0.1,4.4,0.2,6.6,0.3l7.1,13.5l4.1-12.4c2.4,0.3,4.8,0.6,7.1,1l3.1,13.1l7.1-11   c8.9,2.2,17.1,5.2,24.4,9.3c0,0-7.9,5.5-20,12.8l-12.5-5.6l3.8,10.7c-2.7,1.5-5.4,3.1-8.3,4.6l-8.4-8.5l-0.4,13.2   c-1.9,1-3.9,2-5.9,2.9l-12.7-7.1l3,11.6c-2.3,1-4.6,2-6.9,2.9l-9.5-9.6l-0.4,13.3c-2.4,0.8-4.7,1.6-7.1,2.3l-10.3-10.4l-0.4,13.2   c-3.4,0.7-6.8,1.3-10,1.6l-8.1-8.2l-0.2,8.5c-3.5-0.1-6.9-0.6-9.9-1.5l-2.9-13.6l-6.2,9.1c-1.5-1-2.8-1.9-4.1-2.7l-2.3-11l-4.8,7.1   c-16.3-7.4,0.6,16.5,0.6,16.5s-21.5,35.4-9,52.1L95.2,464l-22.9,6.4l-11.1-34.7v25l-16.7-13.9l7.6,16.7c0,0-0.1,0.5-0.1,1.5   L39,452.7L53.5,476l0,0c0.2,1.1,0.5,2.2,0.8,3.5c2.8,11.1,39.6,3.5,39.6,3.5s47.2,6.2,61.1-6.2c0,0,35.2,10.8,49.5,9.4   c-8.3,1.6-32.3-0.2-42.6,10.6l-26.8,4.1l17.1,2C147,509.2,139,519,139,519l18.7-9.7L157,519l17.4-8.3c0,0,13.1,7.6,20.8,3.5   c7.6-4.2,33.4,0,50.1-8.3c16.7-8.3,83.3-19.4,95.8-14.6c12.5,4.9,148.6-3.5,168-39.6c0,0-27.8,13.2-51.4,4.2c0,0-0.1-4.6-0.6-12.3   c10-4.2,16-10.4,15.4-11c-0.6-0.7-6.7,3.6-15.6,7.2c-0.1-2.1-0.3-4.3-0.5-6.7c8-3,12.8-7.1,12.4-7.7c-0.4-0.7-5.4,1.9-12.6,4.2   c-0.5-5.9-1.2-12.5-2-19.5c4.9,2.8,8.9,6,11.6,8.6c1.4,1.3,2.5,2.4,3.3,3.1c0.8,0.7,1.4,1.1,1.6,0.9c0.2-0.1,0.1-0.8-0.4-1.8   c-0.5-1-1.3-2.5-2.5-4c-2.4-3.2-6.6-7.1-11.9-10.1c-0.7-0.4-1.5-0.8-2.2-1.2c-0.3-2.6-0.7-5.3-1.1-8c0.2-0.1,0.3-0.3,0.5-0.4   c4.5-3.6,9-6.2,12.4-7.8c1.7-0.9,3.1-1.4,4.1-1.9c1-0.5,1.5-0.9,1.4-1.1c-0.1-0.2-0.7-0.3-1.8-0.2c-1.1,0.1-2.7,0.3-4.7,0.9   c-1.3,0.4-2.8,0.9-4.4,1.6c-0.1-0.3-0.4-0.6-0.7-0.9c-0.7-0.9-1.8-2.1-3.4-3.3c-1.6-1.4-3.8-2.8-6.4-4.1c-0.4-2.2-0.8-4.4-1.3-6.6   c6.9-1.9,11.2-4.6,10.9-5.2c-0.3-0.7-4.8,0.8-11.5,2c-0.8-3.9-1.7-7.7-2.6-11.5c7.2-7.3,10.2-14.7,9.4-15c-0.7-0.4-4.3,4.9-10.4,11   c-0.9-3.4-1.8-6.8-2.8-10.1c2-0.8,3.8-1.5,5.4-2c1.8-0.6,3.3-1,4.3-1.3c1-0.3,1.6-0.6,1.6-0.9c0-0.3-0.6-0.4-1.8-0.5   c-1.1-0.1-2.8-0.1-4.7,0.2c-1.7,0.2-3.7,0.7-5.9,1.4c-1.1-3.6-2.4-7-3.7-10.4c4.7-0.4,9-0.3,12.2,0.1c1.9,0.1,3.4,0.4,4.5,0.5   c1.1,0.1,1.7,0,1.8-0.2c0.1-0.2-0.4-0.6-1.4-1.2c-1-0.5-2.5-1.2-4.4-1.7c-3.5-1-8.6-1.6-14.1-1.1c-1.1-2.7-2.3-5.3-3.6-7.8   c1.1,0.3,2.3,0.6,3.5,1c5.5,1.7,10.2,3.9,13.4,5.8c1.7,0.9,3,1.8,3.9,2.3c1,0.5,1.6,0.7,1.7,0.6c0.2-0.2-0.1-0.7-0.8-1.6   c-0.7-0.9-1.8-2.1-3.4-3.3c-3.1-2.6-8-5.4-13.9-7.2c-2.3-0.7-4.6-1.2-6.7-1.5c-4.2-7.6-9.1-13.9-14.7-18.1c2.7,1.2,5.7,2.6,8.8,4.4   c5,2.9,9,6.1,11.8,8.7c1.4,1.3,2.5,2.4,3.3,3.1c0.8,0.7,1.4,1.1,1.6,0.9c0.2-0.1,0.1-0.8-0.4-1.8c-0.5-1-1.3-2.5-2.5-4   c-2.4-3.2-6.6-7.1-11.9-10.1c-5.4-3.1-10.6-4.8-14.5-5.6c-0.3-2-1-5.4-2-9.5c0.5,0.3,0.9,0.5,1.4,0.8c5,2.9,9,6.1,11.8,8.7   c1.4,1.3,2.5,2.4,3.3,3.1c0.8,0.7,1.4,1.1,1.6,0.9c0.2-0.1,0.1-0.8-0.4-1.8c-0.5-1-1.3-2.5-2.5-4c-2.4-3.2-6.6-7.1-11.9-10.1   c-1.5-0.8-2.9-1.6-4.4-2.2c-1.2-4.3-2.6-9-4.5-13.7c4.4,0,8.3,0.5,11.3,1.1c1.9,0.3,3.4,0.7,4.4,0.9c1.1,0.2,1.7,0.2,1.8,0   c0.1-0.2-0.4-0.7-1.3-1.3c-0.9-0.6-2.4-1.4-4.3-2.1c-3.3-1.3-8.1-2.2-13.5-2.2c-3.4-7.6-7.8-14.6-13.5-18.7c0,0,22.9-0.5,50.1-7.8   l-0.1,0c0,0,4.9,48.7,33.5,39.8c22.4-6.9,3.8-36.8-5.4-49.6c5.3-2.4,10.6-5,15.6-8.1c0.3,0,0.6,0.1,0.9,0.1   c12.3,1.3,21.9-2.3,21.5-3.2c-0.2-0.9-7.7,0.4-17.4-0.1c0.9-0.6,1.8-1.2,2.7-1.9c0.6,0,1.2,0,1.8,0c4-0.1,9.6-1.2,15.2-3.7   c4.7-2.1,8.5-4.7,11.4-7.1c0.1,0.5,0.3,0.9,0.4,1.4c3.1,10.6,5.1,21.4,5.9,31.8c0.9,10.4,0.8,20.6,0.1,30.2   c-0.7,9.6-1.9,18.7-3.5,27.1c-0.4,2.1-0.8,4.2-1.2,6.2c-0.4,2-0.8,4-1.3,5.9c-1,3.9-1.8,7.6-2.8,11.1c-3.9,14.1-7.8,25.2-10.7,32.8   c-0.6,1.5-1.1,2.9-1.6,4.1c-1.3,0.2-3,1-4.9,2.2c-1.2-5.3-3.7-14.4-7.4-16c-1.1-0.5-2.2-0.3-3.3,0.5c-1.2,0.8-1.9,2-2,3.4   c-0.3,5.1,7.1,12.5,9.4,14.7c-0.1,0.1-0.2,0.2-0.3,0.3c-4.2-1.4-17.8-5.7-22.1-2.5c-1,0.8-1.5,1.9-1.4,3.3c0.1,1.6,0.8,2.9,2.1,3.7   c1.5,1,3.6,1.3,6,1.3c4.6,0,10.1-1.4,12.7-2.2c-0.3,0.8-0.4,1.4,0,1.9c1,1.2,4.6-0.1,8.2-3c3.6-2.8,5.7-6.1,4.7-7.3   c-0.3-0.3-0.8-0.5-1.4-0.4c0.5-1.2,1-2.5,1.6-3.9c3-7.6,7.1-18.7,11-32.8c1-3.5,1.9-7.2,2.9-11.1c0.5-1.9,0.9-3.9,1.3-6   c0.4-2,0.9-4.1,1.3-6.2c1.7-8.4,2.9-17.6,3.7-27.2C526.3,255.8,526.4,245.6,525.5,235.1z M99.7,317.3c0,0-2.7-9.8,0-13.2   s8.3,7.3,8.3,7.3L99.7,317.3z M116.1,142.7c0,0,26,13.2,40.1,32.9c-2.3-0.8-4.8-1.7-7.4-2.8c-5.3-2.3-9.7-5-12.7-7.3   c-1.6-1.1-2.7-2.1-3.6-2.7c-0.9-0.6-1.5-0.9-1.7-0.8c-0.2,0.2,0,0.8,0.6,1.7c0.6,1,1.5,2.3,3,3.7c2.8,2.9,7.3,6.3,12.9,8.7   c4.1,1.8,8.1,2.8,11.5,3.4c1.5,2.5,2.8,5.1,3.8,7.8c-2.6-0.8-5.5-1.8-8.5-3.1c-5.3-2.3-9.7-5-12.7-7.3c-1.6-1.1-2.7-2.1-3.6-2.7   c-0.9-0.6-1.5-0.9-1.7-0.8c-0.2,0.2,0,0.8,0.6,1.7c0.6,1,1.5,2.3,3,3.7c2.8,2.9,7.3,6.3,12.9,8.7c4,1.7,7.8,2.8,11.1,3.4   c0.5,1.7,0.8,3.4,1,5.1l-9,8.3C155.6,204.5,114.7,171.8,116.1,142.7z M221.7,444.7c3,0,5.4,1.4,5.4,3.1s-2.4,3.1-5.4,3.1   c-3,0-5.4-1.4-5.4-3.1S218.7,444.7,221.7,444.7z M151.2,388.4c6.7,1.3,16.1,2.2,26.5,1.6c20.8-1.4,36.8-8.3,37.2-7   c0.2,0.4-3.6,2.5-10.2,5c-6.5,2.5-16,4.9-26.8,5.7c-10.8,0.7-20.6-0.7-27.3-2.7c-6.8-2-10.5-4.4-10.3-4.8   C140.6,385.6,144.5,387.1,151.2,388.4z M320.6,463.5c-4.8,1.5-11.6,4-20.4,5.5c-8.7,2.1-19.4,3.3-31.2,4.1   c-11.8,0.5-24.9,0.4-38.5-1.4c-13.6-1.5-26.3-4.6-37.7-7.7c-11.3-3.4-21.4-7.1-29.5-10.8c-8.2-3.6-14.6-7-18.9-9.6   c-4.3-2.5-6.5-4.3-6.4-4.4c0.1-0.2,2.6,1.1,7.1,3.2c4.5,2.2,11,5.2,19.2,8.4c8.2,3.3,18.2,6.7,29.5,9.9c11.3,2.9,23.9,5.9,37.3,7.3   c13.4,1.8,26.2,2,37.9,1.7c11.7-0.6,22.2-1.6,30.8-3.3c8.8-1.2,15.7-3.2,20.5-4.3c4.8-1.1,7.6-1.7,7.6-1.4   C327.9,460.9,325.3,461.9,320.6,463.5z M282.4,311.7c-0.8,0-1.7,0-2.5-0.1c-0.8,0-1.7,0.1-2.5,0.1c-27.1,0-49.6-20.2-53.3-46.3   c-1.3,11.7-7.6,21.8-16.8,28.3c-7.3,7.7-17.7,12.6-29.1,12.6c-22.1,0-40.1-18-40.1-40.1c0-13.5,6.7-25.5,17-32.8   c7.3-7.7,17.7-12.6,29.1-12.6c19.7,0,36.1,14.3,39.5,33.1C225.7,226,249,204,277.3,204c0.8,0,1.7,0,2.5,0.1c0.8,0,1.7-0.1,2.5-0.1   c29.7,0,53.8,24.1,53.8,53.8S312,311.7,282.4,311.7z M514.5,191.9c-1.7,1-3.5,2-5.5,3c1.5-1.9,3-3.8,4.3-5.9   C513.7,190,514.1,190.9,514.5,191.9z M486.3,147.1c-2.1-0.3-4.2-0.6-6.3-0.9c1.1-0.7,2.3-1.4,3.6-2.1   C484.5,145.1,485.4,146.1,486.3,147.1z M473.1,139.9c1.8-0.5,3.3-0.8,4.4-1.1c0.2-0.1,0.4-0.1,0.5-0.2c1,0.9,1.9,1.8,2.9,2.8   c-2.3,1.4-4.3,2.8-6,4.2c-5-0.4-10.2-0.7-15.5-0.6C464.5,142.5,469.4,140.8,473.1,139.9z M454.4,386.5c1.7,0.9,3,1.8,3.9,2.3   c0.2,0.1,0.4,0.2,0.6,0.3c-2.3,1.1-4.8,2.6-7.2,4.4c-0.5-3-1-6.1-1.5-9.2C451.8,385,453.2,385.8,454.4,386.5z M382,210   c0,0,51.4-52.1,112.5-46.5c0,0-5.4,15.3-23.6,30.8c5.1-7.3,6.7-13.8,6-14c-0.9-0.4-5,8.3-12.8,16.8c-3.7,4.1-7.6,7.3-10.7,9.5   c7.5-8.8,10-17.9,9.1-18.1c-0.9-0.4-5,8.3-12.8,16.8c-1.8,2-3.7,3.8-5.5,5.4c4.8-10.4,4.8-19.7,3.9-19.7c-1-0.1-2.7,9.3-7.9,19.6   c-0.6,1.2-1.2,2.3-1.9,3.4c-12.7,5.2-28.1,9.4-46.6,11.4L382,210z M467.6,263.9c-14.7,3.5-20.2-30.7-20.2-30.9   c3.8-1.2,7.6-2.5,11.4-4C465,238.1,479.3,261.1,467.6,263.9z M505.2,205.7c-4.1,1.8-8,3.1-11.2,3.9c3.3-2.6,6.4-5.3,9.3-8.3   c1.4-0.5,2.8-1,4.2-1.6c3.1-1.4,5.9-3,8.2-4.7c0.5,1.4,1,2.8,1.5,4.2C514,201.2,509.9,203.6,505.2,205.7z M474.2,361.5   c-1-0.7-1.6-1.7-1.7-3c-0.1-1.1,0.3-1.9,1-2.5c3.8-2.8,16.3,1,20.8,2.5c-0.5,0.6-1,1.2-1.3,1.7   C490.1,361.1,478.6,364.5,474.2,361.5z M496,356.9c-2.2-2.1-9.5-9.3-9.2-14c0.1-1.2,0.6-2.1,1.6-2.8c0.8-0.6,1.6-0.7,2.4-0.4   c3.4,1.5,5.9,10.6,7,15.7c-0.2,0.2-0.5,0.4-0.7,0.6C496.6,356.3,496.3,356.6,496,356.9z"/><path d="M144.1,260.9c0-8.1,2.4-15.6,6.6-21.9c-6.9,7-11.2,16.6-11.2,27.2c0,21.3,17.4,38.7,38.7,38.7c8.6,0,16.5-2.8,22.9-7.6   c-5.1,2.4-10.9,3.8-16.9,3.8C162.1,301,144.1,283,144.1,260.9z"/><path d="M189.1,291.6c-17,0-30.7-13.8-30.7-30.7c0-17,13.8-30.7,30.7-30.7c1.4,0,2.7,0.1,4,0.3c-4.6-1.9-9.7-3-15-3   c-8.2,0-15.9,2.6-22.2,7c-6.5,6.9-10.5,16.2-10.5,26.5c0,21.3,17.4,38.7,38.7,38.7c8.2,0,15.9-2.6,22.2-7c4.1-4.4,7.2-9.7,8.9-15.6   C209.9,285.8,200.2,291.6,189.1,291.6z"/><path d="M228.5,257.9c0-22.9,14.4-42.6,34.7-50.3c-22,6.2-38.2,26.4-38.2,50.3s16.2,44.1,38.2,50.3   C243,300.4,228.5,280.8,228.5,257.9z"/><path d="M296.4,207.6c20.3,7.7,34.7,27.4,34.7,50.3c0,22.9-14.4,42.6-34.7,50.3c22-6.2,38.2-26.4,38.2-50.3   S318.4,213.7,296.4,207.6z"/><path d="M184.2,222.2c-8.6,0-16.5,2.8-22.9,7.6c5.1-2.4,10.9-3.8,16.9-3.8c7.5,0,14.6,2.1,20.6,5.7c12.2,4,21.1,15.6,21.1,29.2   c0,3.8-0.7,7.5-2,10.9c-0.8,5.9-3,11.5-6.1,16.3c6.9-7,11.2-16.6,11.2-27.2C222.9,239.6,205.5,222.2,184.2,222.2z"/><path d="M329.6,257.9c0-28-22.1-50.9-49.7-52.2c-27.6,1.3-49.7,24.2-49.7,52.2s22.1,50.9,49.7,52.2   C307.5,308.7,329.6,285.8,329.6,257.9z M277.3,304.1c-24.3,0-43.9-19.7-43.9-43.9c0-24.3,19.7-43.9,43.9-43.9s43.9,19.7,43.9,43.9   C321.2,284.5,301.6,304.1,277.3,304.1z"/><circle cx="189.1" cy="260.9" r="3"/><circle cx="277.3" cy="260.2" r="3"/><path d="M240.4,80.3c0.3,1.5,4.2,1.9,8.7,0.9c4.3-1,7.5-3,7.4-4.4c0.3-0.1,0.7-0.2,1.1-0.3c1.2-0.3,2.8-0.8,5-1.3   c4.4-1,10.8-2.4,18.8-2.8c8-0.4,17.7,0.2,27.7,3.8c10,3.5,19.9,10.2,28.1,19.3c8.2,9.1,14,19.4,18.4,29.1   c4.4,9.7,7.2,18.9,9.3,26.6c2.1,7.8,3.3,14.2,4.1,18.6c0.4,2.2,0.6,3.9,0.8,5.1c0.2,1.2,0.3,1.8,0.3,1.8c0,0,0-0.6-0.1-1.8   c-0.1-1.2-0.3-2.9-0.6-5.2c-0.6-4.5-1.7-10.9-3.7-18.8c-2-7.8-4.8-17.1-9.1-26.9c-4.3-9.8-10.2-20.2-18.5-29.4   c-8.3-9.2-18.4-16-28.6-19.5c-5.1-1.8-10.1-2.8-14.8-3.3c-4.7-0.5-9.2-0.5-13.2-0.3c-8.1,0.5-14.5,2-18.9,3.2   c-2.2,0.6-3.8,1.1-5,1.5c-0.4,0.1-0.8,0.3-1.1,0.4c0,0,0,0,0,0c-0.1-0.5-0.7-0.9-1.5-1.1c3.4-2.4,11.8-8.8,12.3-14.1   c0.1-1.5-0.4-2.9-1.6-4c-1.1-1-2.2-1.3-3.5-1c-5.3,1.4-10.3,14.7-11.8,18.9c-0.1,0-0.3,0-0.4,0.1c-0.3-3.2-1.4-13.6-5.7-16.5   c-1.2-0.8-2.5-1-3.9-0.6c-1.3,0.4-2.1,1.1-2.4,2.3c-1.1,3.9,4.5,11.5,7.9,15.7C242.5,77.3,240.1,79,240.4,80.3z M262.5,57.3   c0.9-0.2,1.8,0,2.6,0.8c1,0.9,1.4,1.9,1.3,3.2c-0.4,5.3-10.2,12.3-12.7,13.9c-0.6-0.1-1.4-0.1-2.2,0   C253.1,70.7,257.9,58.5,262.5,57.3z M238.9,60.7c0.2-0.8,0.8-1.4,1.8-1.7c1.2-0.4,2.2-0.2,3.1,0.5c3.9,2.7,5,12.9,5.3,15.9   c-0.4,0.1-0.9,0.2-1.3,0.3c-0.3,0.1-0.6,0.1-0.9,0.2C243.6,71.9,237.9,64.3,238.9,60.7z"/><path d="M247.1,71.2c-0.3-1.3-0.9-3.1-1.8-4.9c-1.8-3.7-4.1-6.1-4.2-6c-0.2,0.1,1.7,2.8,3.5,6.4c0.9,1.8,1.5,3.4,1.9,4.7   c0.4,1.2,0.6,2,0.7,2c0.1,0,0.1-0.2,0.1-0.6C247.3,72.4,247.3,71.8,247.1,71.2z"/><path d="M254.1,72.6c0.2-0.3,0.5-0.8,0.9-1.4c0.8-1.2,2-2.8,3.3-4.6c2.7-3.5,4.8-6.3,4.7-6.5c-0.2-0.1-2.7,2.4-5.3,6   c-1.3,1.8-2.4,3.5-3.1,4.8c-0.3,0.7-0.5,1.2-0.7,1.6c-0.1,0.4-0.1,0.7,0,0.7C253.8,73.1,254,72.9,254.1,72.6z"/><path d="M491.9,347.8c-1.7-3.6-2.6-6.7-2.8-6.7c-0.2,0,0.3,3.3,2.1,7c0.9,1.8,1.9,3.4,2.7,4.4c0.4,0.5,0.8,0.9,1.1,1.1   c0.3,0.2,0.5,0.4,0.5,0.3c0.1-0.1-0.4-0.7-1.1-1.8C493.6,351.2,492.7,349.6,491.9,347.8z"/><path d="M490.7,358.7c-0.4-0.2-1-0.4-1.7-0.5c-1.4-0.3-3.5-0.5-5.7-0.5c-4.4-0.1-8,0.2-8,0.5c0,0.2,3.6,0.3,8,0.4   c2.2,0.1,4.2,0.1,5.6,0.3c0.7,0.1,1.3,0.2,1.7,0.2c0.4,0.1,0.6,0.1,0.6,0.1C491.3,359,491.1,358.9,490.7,358.7z"/><path d="M91.9,363.1c0.1,0,0.2-0.8,0.5-2.1c0.2-1.3,0.7-3,1.3-4.9c1.3-3.8,2.8-6.6,2.6-6.8c-0.2-0.1-2.1,2.6-3.4,6.5   c-0.7,1.9-1,3.8-1.1,5.1c-0.1,0.7,0,1.2,0,1.6C91.8,362.9,91.8,363.1,91.9,363.1z"/><path d="M84,362c0.5,0.5,0.8,1,1,1.3c0.2,0.3,0.3,0.5,0.4,0.5c0.1,0,0-0.2-0.1-0.7c-0.2-0.4-0.4-0.9-0.9-1.5   c-0.8-1.2-2.2-2.7-3.7-4.3c-3.1-3.2-5.9-5.4-6.1-5.2c-0.2,0.2,2.4,2.7,5.5,5.8C81.7,359.4,83,360.9,84,362z"/><path d="M54.6,357.9c1.2,0.5,2.3,0.8,3.4,1.2c1.1,0.4,2.2,0.8,3.3,1c2.2,0.6,4.2,1.2,6.1,1.6c1.9,0.4,3.7,0.9,5.3,1.2   c1.7,0.3,3.2,0.6,4.5,0.9c1.7,0.3,3.2,0.6,4.5,0.8c1.1,0.6,2.1,1.2,2.8,1.5c-0.8,0.3-1.3,0.8-1.3,1.3c-0.2,1.5,3.4,3.1,7.9,3.6   c4.5,0.4,8.3-0.4,8.5-2c0.1-1.3-2.5-2.7-6.1-3.3c2.9-4.6,7.4-12.9,5.8-16.6c-0.5-1.1-1.3-1.7-2.7-1.9c-1.5-0.2-2.7,0.1-3.8,1.1   c-3.8,3.5-3.6,13.9-3.5,17.1c-0.1,0-0.3,0-0.4,0c-2-4-8.7-16.5-14.1-17.2c-1.3-0.2-2.4,0.3-3.3,1.4c-1,1.2-1.4,2.6-1.1,4.1   c0.8,3.9,6.2,7.8,10.4,10.4c-1-0.2-2.3-0.4-3.6-0.7c-1.3-0.3-2.8-0.6-4.5-1c-1.6-0.4-3.4-0.9-5.3-1.3c-1.9-0.5-3.9-1.1-6-1.7   c-1.1-0.3-2.1-0.7-3.2-1.1c-1.1-0.4-2.3-0.7-3.4-1.2c-4.6-1.7-9.5-3.9-14.4-7c-4.8-3.1-9.6-7.2-12.8-12.8c-1.6-2.8-2.6-6-3-9.3   c-0.4-3.3-0.2-6.8,0.6-10.2c1.4-6.9,4.8-13.5,8.8-19.8c4.1-6.3,8.7-12,13.5-17.3c4.8-5.3,9.6-10.1,14.4-14.5   c9.6-8.9,18.7-16.2,26.5-22.3c7.8-6,14.4-10.6,18.9-13.8c2.3-1.6,4-2.8,5.2-3.6c0.6-0.4,1.1-0.7,1.4-0.9c0.3-0.2,0.5-0.3,0.4-0.4   c0,0-0.2,0.1-0.5,0.3c-0.3,0.2-0.8,0.5-1.4,0.9c-1.2,0.8-3,1.9-5.4,3.4c-4.6,3.1-11.2,7.6-19.1,13.5c-7.9,5.9-17.1,13.3-26.8,22.1   c-4.8,4.4-9.7,9.3-14.5,14.5c-4.8,5.3-9.5,11-13.6,17.4c-4.1,6.4-7.5,13.1-8.9,20.2c-0.7,3.5-1,7.1-0.6,10.6   c0.4,3.5,1.5,6.8,3.1,9.7c3.3,5.8,8.2,10.1,13.2,13.1C44.9,354.1,49.9,356.3,54.6,357.9z M93.5,349c0.9-0.8,1.9-1.1,3.1-0.9   c1,0.2,1.6,0.6,2,1.4c1.5,3.5-3.2,11.7-6,16.1c-0.3,0-0.6-0.1-0.9-0.1c-0.5,0-0.9-0.1-1.3-0.1C90.2,362.4,90,352.2,93.5,349z    M71.4,353.6c-0.3-1.2,0-2.3,0.9-3.3c0.7-0.8,1.5-1.2,2.5-1.1c4.7,0.6,11,12,13.2,16.3c-0.8,0.1-1.5,0.2-2.1,0.3   c-0.3-0.2-0.8-0.4-1.4-0.7c0.3,0,0.5,0.1,0.7,0.1c0.4,0,0.6,0.1,0.6,0c0,0-0.2-0.1-0.5-0.2c-0.3-0.1-0.7-0.2-1.2-0.3   C79.9,362.6,72.4,358,71.4,353.6z"/></g><text x="0" y="585.1" fill="#000000" font-size="5px" font-weight="bold" font-family="'Helvetica Neue', Helvetica, Arial-Unicode, Arial, Sans-serif">Created by Ian Ransley</text><text x="0" y="590.1" fill="#000000" font-size="5px" font-weight="bold" font-family="'Helvetica Neue', Helvetica, Arial-Unicode, Arial, Sans-serif">from the Noun Project</text></svg>